[img]http://img856.imageshack.us/img856/4809/petea.jpg[/img]
[code]
Pete Smalls Is Dead 2010 Xvid AC3-26K

Imdb: 
http://www.imdb.com/title/tt1381413/

Plot:
Two old pals attend an old friends funeral and find there is more to his death than him being dead.

Sources:
DVDR

Notes:
enjoy guyz :)

Greetz:
Xtreme Encode|FYA|ILLUMANTI|CM8|RX|VISION|HDSCENE|NIGHTMAREZ|xTriLL|DTRG|CRYS|REMIXHD|BIDA
To all the people who have helped me :P you know who you are

Anything to offer email us @: 26k@hushmail.me

Video
ID                                       : 0
Format                                   : MPEG-4 Visual
Format profile                           : Advanced Simple@L5
Format settings, BVOP                    : 2
Format settings, QPel                    : No
Format settings, GMC                     : No warppoints
Format settings, Matrix                  : Default (H.263)
Muxing mode                              : Packed bitstream
Codec ID                                 : XVID
Codec ID/Hint                            : XviD
Duration                                 : 1h 34mn
Bit rate                                 : 1 701 Kbps
Width                                    : 720 pixels
Height                                   : 398 pixels
Display aspect ratio                     : 16:9
Frame rate                               : 23.976 fps
Color space                              : YUV
Chroma subsampling                       : 4:2:0
Bit depth                                : 8 bits
Scan type                                : Progressive
Compression mode                         : Lossy
Bits/(Pixel*Frame)                       : 0.248
Stream size                              : 1.12 GiB (79%)
Writing library                          : XviD 1.2.1 (UTC 2008-12-04)

Audio
ID                                       : 1
Format                                   : AC-3
Format/Info                              : Audio Coding 3
Mode extension                           : CM (complete main)
Codec ID                                 : 2000
Duration                                 : 1h 34mn
Bit rate mode                            : Constant
Bit rate                                 : 448 Kbps
Channel(s)                               : 6 channels
Channel positions                        : Front: L C R, Side: L R, LFE
Sampling rate                            : 48.0 KHz
Bit depth                                : 16 bits
Compression mode                         : Lossy
Stream size                              : 303 MiB (21%)
Alignment                                : Aligned on interleaves
Interleave, duration                     : 32 ms (0.77 video frame)
Interleave, preload duration             : 32 ms

[/code]
Screens:
[img]http://img440.imageshack.us/img440/7630/vlcsnap2011122616h39m06.png[/img]
[img]http://img836.imageshack.us/img836/1092/vlcsnap2011122616h39m11.png[/img]
[img]http://img546.imageshack.us/img546/7579/vlcsnap2011122616h39m19.png[/img]
[img]http://img39.imageshack.us/img39/9255/vlcsnap2011122616h39m23.png[/img]
[img]http://img834.imageshack.us/img834/5807/vlcsnap2011122616h39m29.png[/img]
[img]http://img715.imageshack.us/img715/3397/vlcsnap2011122616h39m36.png[/img]

[img]http://img851.imageshack.us/img851/5503/26ks.jpg[/img]#
Thank you smallz for banner!